# xmcd
#
# Track frame offsets:
#	150
#	31069
#	61383
#	101595
#	113706
#	153424
#	201488
#
# Disc length: 3170 seconds
#
# Revision: 1
# Processed by: cddbd v1.5.2PL0 Copyright (c) Steve Scherf et al.
# Submitted via: audiograbber 1.83.01
#
DISCID=570c6007
DTITLE=Grateful Dead - 95-04-05 BJCC Coliseum, Birmingham AL
DYEAR=1900
DGENRE=
TTITLE0=Touch Of Grey
TTITLE1=Wang Dang Doodle
TTITLE2=Stagger Lee
TTITLE3=Me and My Uncle
TTITLE4=Maggie's Farm
TTITLE5=Row Jimmy
TTITLE6=The Music Never Stopped
EXTD=
EXTT0=
EXTT1=
EXTT2=
EXTT3=
EXTT4=
EXTT5=
EXTT6=
PLAYORDER=
